<mxfile host="app.diagrams.net" modified="2023-07-08T12:10:25.476Z" agent="Mozilla/5.0 (X11; Linux x86_64; rv:109.0) Gecko/20100101 Firefox/115.0" etag="GKxLjQ8IPeAB04Vx5gZU" version="21.6.1" type="device">
  <diagram name="Page-1" id="1YMs_SUl13iGtnZm118J">
    <mxGraphModel dx="986" dy="630" grid="1" gridSize="10" guides="1" tooltips="1" connect="1" arrows="1" fold="1" page="1" pageScale="1" pageWidth="850" pageHeight="1100" math="0" shadow="0">
      <root>
        <mxCell id="0" />
        <mxCell id="1" parent="0" />
        <mxCell id="bDp2flMbTmdIhG1SiKJ7-2" style="rounded=0;orthogonalLoop=1;jettySize=auto;html=1;endArrow=none;endFill=0;entryX=0;entryY=0.5;entryDx=0;entryDy=0;" parent="1" source="oouCqWtVGJKAs0fREIfP-3" target="bDp2flMbTmdIhG1SiKJ7-7" edge="1">
          <mxGeometry relative="1" as="geometry">
            <mxPoint x="480" y="270" as="targetPoint" />
          </mxGeometry>
        </mxCell>
        <mxCell id="bDp2flMbTmdIhG1SiKJ7-10" style="rounded=0;orthogonalLoop=1;jettySize=auto;html=1;exitX=0.7;exitY=0.033;exitDx=0;exitDy=0;entryX=0;entryY=0;entryDx=0;entryDy=52.5;entryPerimeter=0;endArrow=none;endFill=0;exitPerimeter=0;" parent="1" source="oouCqWtVGJKAs0fREIfP-3" target="oouCqWtVGJKAs0fREIfP-28" edge="1">
          <mxGeometry relative="1" as="geometry" />
        </mxCell>
        <mxCell id="oouCqWtVGJKAs0fREIfP-3" value="&lt;div style=&quot;font-size: 17px;&quot;&gt;&lt;font style=&quot;font-size: 17px;&quot;&gt;Gateway&lt;/font&gt;&lt;/div&gt;&lt;div style=&quot;font-size: 17px;&quot;&gt;&lt;font style=&quot;font-size: 17px;&quot;&gt;&lt;b&gt;0&lt;br style=&quot;font-size: 17px;&quot;&gt;&lt;/b&gt;&lt;/font&gt;&lt;/div&gt;" style="ellipse;whiteSpace=wrap;html=1;fontSize=17;spacingTop=5;" parent="1" vertex="1">
          <mxGeometry x="310" y="190" width="90" height="60" as="geometry" />
        </mxCell>
        <mxCell id="bDp2flMbTmdIhG1SiKJ7-8" style="rounded=0;orthogonalLoop=1;jettySize=auto;html=1;exitX=0.5;exitY=0;exitDx=0;exitDy=0;endArrow=none;endFill=0;" parent="1" source="oouCqWtVGJKAs0fREIfP-4" target="oouCqWtVGJKAs0fREIfP-3" edge="1">
          <mxGeometry relative="1" as="geometry" />
        </mxCell>
        <mxCell id="oouCqWtVGJKAs0fREIfP-4" value="&lt;div&gt;Sender&lt;/div&gt;&lt;div&gt;&lt;b&gt;3&lt;/b&gt;&lt;br&gt;&lt;/div&gt;" style="ellipse;whiteSpace=wrap;html=1;aspect=fixed;strokeColor=default;spacingTop=6;" parent="1" vertex="1">
          <mxGeometry x="280" y="280" width="50" height="50" as="geometry" />
        </mxCell>
        <mxCell id="bDp2flMbTmdIhG1SiKJ7-9" style="rounded=0;orthogonalLoop=1;jettySize=auto;html=1;exitX=0.5;exitY=0;exitDx=0;exitDy=0;entryX=0.644;entryY=0.983;entryDx=0;entryDy=0;entryPerimeter=0;endArrow=none;endFill=0;" parent="1" source="oouCqWtVGJKAs0fREIfP-5" target="oouCqWtVGJKAs0fREIfP-3" edge="1">
          <mxGeometry relative="1" as="geometry">
            <mxPoint x="440" y="260" as="targetPoint" />
          </mxGeometry>
        </mxCell>
        <mxCell id="oouCqWtVGJKAs0fREIfP-5" value="Sender &lt;b&gt;2&lt;/b&gt;" style="ellipse;whiteSpace=wrap;html=1;aspect=fixed;spacingTop=6;" parent="1" vertex="1">
          <mxGeometry x="350" y="280" width="50" height="50" as="geometry" />
        </mxCell>
        <mxCell id="oouCqWtVGJKAs0fREIfP-8" value="Sender &lt;b&gt;4&lt;/b&gt;" style="ellipse;whiteSpace=wrap;html=1;aspect=fixed;spacingTop=6;" parent="1" vertex="1">
          <mxGeometry x="490" y="280" width="50" height="50" as="geometry" />
        </mxCell>
        <mxCell id="oouCqWtVGJKAs0fREIfP-9" value="&lt;div&gt;Sender &lt;b&gt;1&lt;/b&gt;&lt;/div&gt;" style="ellipse;whiteSpace=wrap;html=1;aspect=fixed;spacingTop=6;" parent="1" vertex="1">
          <mxGeometry x="425" y="280" width="50" height="50" as="geometry" />
        </mxCell>
        <mxCell id="bDp2flMbTmdIhG1SiKJ7-3" style="rounded=0;orthogonalLoop=1;jettySize=auto;html=1;exitX=0.25;exitY=1;exitDx=0;exitDy=0;entryX=0.5;entryY=0;entryDx=0;entryDy=0;endArrow=none;endFill=0;" parent="1" source="bDp2flMbTmdIhG1SiKJ7-7" target="oouCqWtVGJKAs0fREIfP-9" edge="1">
          <mxGeometry relative="1" as="geometry">
            <mxPoint x="480" y="350" as="sourcePoint" />
          </mxGeometry>
        </mxCell>
        <mxCell id="bDp2flMbTmdIhG1SiKJ7-4" style="rounded=0;orthogonalLoop=1;jettySize=auto;html=1;exitX=0.75;exitY=1;exitDx=0;exitDy=0;endArrow=none;endFill=0;" parent="1" source="bDp2flMbTmdIhG1SiKJ7-7" target="oouCqWtVGJKAs0fREIfP-8" edge="1">
          <mxGeometry relative="1" as="geometry">
            <mxPoint x="480" y="350" as="sourcePoint" />
          </mxGeometry>
        </mxCell>
        <mxCell id="bDp2flMbTmdIhG1SiKJ7-11" style="rounded=0;orthogonalLoop=1;jettySize=auto;html=1;exitX=1;exitY=0;exitDx=0;exitDy=52.5;exitPerimeter=0;entryX=0.256;entryY=0.083;entryDx=0;entryDy=0;entryPerimeter=0;endArrow=none;endFill=0;" parent="1" source="oouCqWtVGJKAs0fREIfP-28" target="oouCqWtVGJKAs0fREIfP-34" edge="1">
          <mxGeometry relative="1" as="geometry" />
        </mxCell>
        <mxCell id="oouCqWtVGJKAs0fREIfP-28" value="Web server" style="shape=cylinder3;whiteSpace=wrap;html=1;boundedLbl=1;backgroundOutline=1;size=15;fontSize=17;" parent="1" vertex="1">
          <mxGeometry x="460" y="90" width="60" height="80" as="geometry" />
        </mxCell>
        <mxCell id="bDp2flMbTmdIhG1SiKJ7-12" style="rounded=0;orthogonalLoop=1;jettySize=auto;html=1;exitX=0.5;exitY=1;exitDx=0;exitDy=0;endArrow=none;endFill=0;" parent="1" source="oouCqWtVGJKAs0fREIfP-34" edge="1">
          <mxGeometry relative="1" as="geometry">
            <mxPoint x="610" y="290" as="targetPoint" />
          </mxGeometry>
        </mxCell>
        <mxCell id="bDp2flMbTmdIhG1SiKJ7-13" style="rounded=0;orthogonalLoop=1;jettySize=auto;html=1;exitX=0.689;exitY=0.933;exitDx=0;exitDy=0;entryX=0.36;entryY=0.04;entryDx=0;entryDy=0;entryPerimeter=0;endArrow=none;endFill=0;exitPerimeter=0;" parent="1" source="oouCqWtVGJKAs0fREIfP-34" target="oouCqWtVGJKAs0fREIfP-40" edge="1">
          <mxGeometry relative="1" as="geometry" />
        </mxCell>
        <mxCell id="oouCqWtVGJKAs0fREIfP-34" value="&lt;div style=&quot;font-size: 17px;&quot;&gt;&lt;font style=&quot;font-size: 17px;&quot;&gt;Gateway&lt;/font&gt;&lt;/div&gt;&lt;div style=&quot;font-size: 17px;&quot;&gt;&lt;b&gt;1&lt;/b&gt;&lt;br&gt;&lt;/div&gt;" style="ellipse;whiteSpace=wrap;html=1;fontSize=17;spacingTop=5;" parent="1" vertex="1">
          <mxGeometry x="580" y="190" width="90" height="60" as="geometry" />
        </mxCell>
        <mxCell id="oouCqWtVGJKAs0fREIfP-40" value="&lt;div&gt;Sender &lt;b&gt;2&lt;/b&gt;&lt;br&gt;&lt;/div&gt;" style="ellipse;whiteSpace=wrap;html=1;aspect=fixed;spacingTop=6;" parent="1" vertex="1">
          <mxGeometry x="640" y="280" width="50" height="50" as="geometry" />
        </mxCell>
        <mxCell id="oouCqWtVGJKAs0fREIfP-42" value="Sender &lt;b&gt;1&lt;/b&gt;" style="ellipse;whiteSpace=wrap;html=1;aspect=fixed;spacingTop=6;" parent="1" vertex="1">
          <mxGeometry x="580" y="280" width="50" height="50" as="geometry" />
        </mxCell>
        <mxCell id="bDp2flMbTmdIhG1SiKJ7-7" value="&lt;div&gt;Repeater&lt;/div&gt;" style="rounded=1;whiteSpace=wrap;html=1;spacingTop=3;" parent="1" vertex="1">
          <mxGeometry x="420" y="200" width="90" height="40" as="geometry" />
        </mxCell>
      </root>
    </mxGraphModel>
  </diagram>
</mxfile>
